<?xml version="1.0" encoding="utf-8"?>
<!-- Generator: Adobe Illustrator 19.2.0, SVG Export Plug-In . SVG Version: 6.00 Build 0)  -->
<svg version="1.1" id="Layer_1" xmlns="http://www.w3.org/2000/svg" xmlns:xlink="http://www.w3.org/1999/xlink" x="0px" y="0px"
	 viewBox="0 0 720 360" style="enable-background:new 0 0 720 360;" xml:space="preserve">
<style type="text/css">
	.st0{fill:#F9BA06;}
	.st1{fill:#1592E8;}
	.st2{stroke:#FFFFFF;stroke-width:0.25;stroke-miterlimit:10;}
	.st3{fill:#FCFCFC;}
	.st4{fill:#8938F2;}
	.st5{font-family:'Futura-Medium';}
	.st6{font-size:88.7454px;}
</style>
<g>
	<path class="st0" d="M505.4,169.2h9.9v42.4h-9.9v-4.4c-3.9,3.9-8.4,5.4-12.8,5.4c-5.9,0-10.8-2-14.3-6.4c-3.9-4.4-5.9-9.9-5.9-16.3
		c0-6.4,2-11.8,5.9-15.8s8.4-6.4,14.3-6.4c4.9,0,9.4,2,13.3,5.9v-4.4H505.4z M482.3,190.4c0,3.9,1,7.4,3.5,9.9s4.9,3.9,8.4,3.9
		c3.5,0,6.4-1.5,8.9-3.9s3.5-5.9,3.5-9.9c0-3.9-1-7.4-3.5-9.9s-4.9-3.9-8.9-3.9c-3.5,0-5.9,1.5-8.4,3.9
		C483.2,183.5,482.3,186.4,482.3,190.4z"/>
	<path class="st1" d="M131,169.2h9.9v42.4H131v-4.4c-3.9,3.9-8.4,5.4-12.8,5.4c-5.9,0-10.8-2-14.3-6.4c-3.9-4.4-5.9-9.9-5.9-16.3
		c0-6.4,2-11.8,5.9-15.8c3.9-3.9,8.4-6.4,14.3-6.4c4.9,0,9.4,2,13.3,5.9v-4.4H131z M107.8,190.4c0,3.9,1,7.4,3.5,9.9
		s4.9,3.9,8.4,3.9s6.4-1.5,8.9-3.9s3.5-5.9,3.5-9.9c0-3.9-1-7.4-3.5-9.9s-4.9-3.9-8.9-3.9c-3.5,0-5.9,1.5-8.4,3.9
		C108.8,183.5,107.8,186.4,107.8,190.4z"/>
	<path class="st2" d="M197.5,190.8c0-2,1-3.9,2.5-5.4c1.5-1.5,3.5-2.5,5.4-2.5c2,0,3.9,1,5.4,2.5c1.5,1.5,2.5,3.5,2.5,5.4
		c0,2-1,3.9-2.5,5.4c-1.5,1.5-3.5,2.5-5.4,2.5c-2.5,0-3.9-1-5.4-2.5C198.5,194.8,197.5,192.8,197.5,190.8z"/>
	<path class="st3" d="M421.4,144.5"/>
	<text transform="matrix(1 0 0 1 568.6732 211.6813)" class="st4 st5 st6">o</text>
	<g>
		<path d="M344,181.5l90.7-160.2h38.9L359.8,211.1v127.7h-33.5V211.1L212.4,21.2h38.9L344,181.5z"/>
	</g>
</g>
</svg>
