<?xml version="1.0" encoding="utf-8"?>
<!-- Generator: Adobe Illustrator 19.2.0, SVG Export Plug-In . SVG Version: 6.00 Build 0)  -->
<svg version="1.1" id="Layer_1" xmlns="http://www.w3.org/2000/svg" xmlns:xlink="http://www.w3.org/1999/xlink" x="0px" y="0px"
	 viewBox="0 0 720 360" style="enable-background:new 0 0 720 360;" xml:space="preserve">
<style type="text/css">
	.st0{fill:#F9BA06;}
	.st1{fill:#1592E8;}
	.st2{stroke:#FFFFFF;stroke-width:0.25;stroke-miterlimit:10;}
	.st3{fill:#FCFCFC;}
	.st4{fill:#8938F2;}
	.st5{font-family:'Futura-Medium';}
	.st6{font-size:159.2917px;}
</style>
<path class="st0" d="M566.5,143.7h17.8v76.1h-17.8v-7.9c-7,7-15.1,9.7-23,9.7c-10.6,0-19.4-3.6-25.7-11.5
	c-7-7.9-10.6-17.8-10.6-29.3c0-11.5,3.6-21.2,10.6-28.4c7-7.2,15.1-11.5,25.7-11.5c8.8,0,16.9,3.6,23.9,10.6v-7.9L566.5,143.7
	L566.5,143.7z M525.1,181.7c0,7,1.8,13.3,6.3,17.8c4.5,4.5,8.8,7,15.1,7c6.3,0,11.5-2.7,16-7c4.5-4.3,6.3-10.6,6.3-17.8
	c0-7-1.8-13.3-6.3-17.8c-4.5-4.5-8.8-7-16-7c-6.3,0-10.6,2.7-15.1,7C526.7,169.3,525.1,174.6,525.1,181.7z"/>
<path class="st1" d="M84.2,143.7H102v76.1H84.2v-7.9c-7,7-15.1,9.7-23,9.7c-10.6,0-19.4-3.6-25.7-11.5c-7-7.9-10.6-17.8-10.6-29.3
	c0-11.5,3.6-21.2,10.6-28.4c7-7,15.1-11.5,25.7-11.5c8.8,0,16.9,3.6,23.9,10.6v-7.9L84.2,143.7L84.2,143.7z M42.6,181.7
	c0,7,1.8,13.3,6.3,17.8c4.5,4.5,8.8,7,15.1,7s11.5-2.7,16-7s6.3-10.6,6.3-17.8c0-7-1.8-13.3-6.3-17.8s-8.8-7-16-7
	c-6.3,0-10.6,2.7-15.1,7C44.4,169.3,42.6,174.6,42.6,181.7z"/>
<path class="st2" d="M166,190.8c0-2,1-3.9,2.5-5.4s3.5-2.5,5.4-2.5c2,0,3.9,1,5.4,2.5s2.5,3.5,2.5,5.4c0,2-1,3.9-2.5,5.4
	s-3.5,2.5-5.4,2.5c-2.5,0-3.9-1-5.4-2.5C167,194.8,166,192.8,166,190.8z"/>
<path class="st3" d="M421.4,144.5"/>
<text transform="matrix(1 0 0 1 625 219.9287)" class="st4 st5 st6">o</text>
<g>
	<path d="M344,181.5l90.7-160.2h38.9L359.8,211.1v127.7h-33.5V211.1L212.4,21.2h38.9L344,181.5z"/>
</g>
</svg>
