<?xml version="1.0" encoding="utf-8"?>
<!-- Generator: Adobe Illustrator 21.1.0, SVG Export Plug-In . SVG Version: 6.00 Build 0)  -->
<svg version="1.1" xmlns="http://www.w3.org/2000/svg" xmlns:xlink="http://www.w3.org/1999/xlink" x="0px" y="0px"
	 viewBox="0 0 500 500" style="enable-background:new 0 0 500 500;" xml:space="preserve">
<style type="text/css">
	.st0{display:none;}
	.st1{display:inline;}
	.st2{fill:#6600CC;}
	.st3{font-family:'Futura-Medium';}
	.st4{font-size:120px;}
	.st5{fill:#0066CC;}
	.st6{fill:#003366;}
	.st7{fill:#33CC00;}
	.st8{fill:#FF9900;}
</style>
<g id="Layer_2" class="st0">
	<rect class="st1" width="500" height="500"/>
</g>
<g id="Layer_1">
	<text transform="matrix(1 0 0 1 310.3417 305.2358)" class="st2 st3 st4">a</text>
	<text transform="matrix(1 0 0 1 59.0815 304.26)" class="st5 st3 st4">a</text>
	<path class="st6" d="M137,136.3l109.5,118l16.1-15l-94.5-101.9C159.9,128.6,145.9,128,137,136.3L137,136.3z"/>
	<path class="st6" d="M239.6,353.3V242.2h22v133.1l0,0C249.5,375.3,239.6,365.4,239.6,353.3z"/>
	<circle class="st7" cx="172.8" cy="275" r="10.8"/>
	<path class="st8" d="M434.4,246.4c-16.8,0-30.5,13.7-30.5,30.5c0,16.8,13.7,30.5,30.5,30.5s30.5-13.7,30.5-30.5
		C464.9,260.1,451.2,246.4,434.4,246.4z M434.4,300.3c-12.9,0-23.4-10.5-23.4-23.4c0-12.9,10.5-23.4,23.4-23.4s23.4,10.5,23.4,23.4
		C457.8,289.9,447.3,300.3,434.4,300.3z"/>
	<path class="st6" d="M363.5,136.7L254,254.7l-16.1-15l94.5-101.9C340.7,128.9,354.6,128.4,363.5,136.7L363.5,136.7z"/>
</g>
</svg>
