<?xml version="1.0" encoding="utf-8"?>
<!-- Generator: Adobe Illustrator 21.1.0, SVG Export Plug-In . SVG Version: 6.00 Build 0)  -->
<svg version="1.1"
	 id="svg3003" inkscape:export-filename="/home/nick/Desktop/smip.png" inkscape:export-xdpi="90" inkscape:export-ydpi="90" inkscape:version="0.48.4 r9939" sodipodi:docname="SocialMediaIcons.svg" xmlns:cc="http://creativecommons.org/ns#" xmlns:dc="http://purl.org/dc/elements/1.1/" xmlns:inkscape="http://www.inkscape.org/namespaces/inkscape" xmlns:rdf="http://www.w3.org/1999/02/22-rdf-syntax-ns#" xmlns:sodipodi="http://sodipodi.sourceforge.net/DTD/sodipodi-0.dtd" xmlns:svg="http://www.w3.org/2000/svg"
	 xmlns="http://www.w3.org/2000/svg" xmlns:xlink="http://www.w3.org/1999/xlink" x="0px" y="0px" viewBox="0 0 717 241.2"
	 style="enable-background:new 0 0 717 241.2;" xml:space="preserve">
<style type="text/css">
	.st0{fill:#1A1A1A;}
	.st1{fill:#003366;}
	.st2{font-family:'Arial-BoldMT';}
	.st3{font-size:6.3212px;}
</style>
<sodipodi:namedview  bordercolor="#666666" borderlayer="true" borderopacity="1.0" fit-margin-bottom="0" fit-margin-left="0" fit-margin-right="0" fit-margin-top="0" id="base" inkscape:current-layer="layer1" inkscape:cx="327.87059" inkscape:cy="157.57672" inkscape:document-units="px" inkscape:object-nodes="false" inkscape:pageopacity="0.0" inkscape:pageshadow="2" inkscape:showpageshadow="false" inkscape:window-height="1056" inkscape:window-maximized="1" inkscape:window-width="1871" inkscape:window-x="49" inkscape:window-y="24" inkscape:zoom="1" pagecolor="#ffffff" showborder="true" showgrid="false">
	</sodipodi:namedview>
<path id="path3017" inkscape:connector-curvature="0" class="st0" d="M76.4,137.4L76.4,137.4l-2.1,0v0h-1.6v0.1h-1.3v0h-1.2v0h-1v0
	h-0.9v0h-0.8v0.1h-0.7v0H66v0h-0.6v0h-0.6v0.1h-0.5v0H64v0h-0.3v0h-0.2v0h-0.2v0.1H63v0h-0.1v0h-0.2v0h-0.2v0.1h-0.2v0h-0.1v0h-0.1
	v0h-0.1v0.1H62v0h-0.1v0h-0.1v0h-0.1v0h-0.1v0.1h-0.1v0h-0.1v0h-0.1v0h-0.1v0.1h-0.1v0h-0.1v0h-0.1v0h-0.1v0h0v0.1H61v0h0v0h-0.1v0
	h-0.1v0.1h-0.1v0h0v0h-0.1v0h0v0h0v0.1h-0.1v0h0v0h0v0h0v0.1h0v0h-0.1v0h0v0h0v0.1h-0.1v0h0v0h0v0h0v0h0v0.1h-0.1v0h0v0h0v0h0v0
	h-0.1v0.1h0v0h0v0h0v0h-0.1v0.1h0v0h0v0.1h0v0.1h0v0h-0.1v0.1h0v0h0v0.1h0v0h-0.1v0.1h0v0h0v0.1h0v0.1h0v0h-0.1v0.1h0v0.1h0v0.1h0
	v0.1h-0.1v0.1h0v0.1h0v0.1h0v0.1h0v0.1h-0.1v0.1h0v0.1h0v0.1h0v0.1h-0.1v0.1h0v0.1h0v0.1h0v0.1h-0.1v0.1h0v0.1h0v0.2h0v0.1h0v0.1
	h-0.1v0.2h0v0.2h0v0.2h0v0.2h-0.1v0.2h0v0.2h0v0.2h0v0.2h0v0.2h-0.1v0.3h0v0.4h0v0.3h0v0.4h-0.1v0.4h0v0.4h0v0.5h0v0.5h0v0.5h-0.1
	v0.7h0v0.8h0v1h0v6.7h0v1h0v0.8h0v0.6h0.1v0.6h0v0.5h0v0.5h0v0.4h0v0.4h0.1v0.4h0v0.4h0v0.3h0v0.3H58v0.2h0v0.2h0v0.2h0v0.2h0v0.2
	h0.1v0.2h0v0.1h0v0.2h0v0.2h0.1v0.2h0v0.1h0v0.1h0v0.1h0v0.1h0.1v0.1h0v0.1h0v0.1h0v0.1h0.1v0.1h0v0.1h0v0.1h0v0.1h0.1v0.1h0v0.1h0
	v0.1h0v0.1h0v0.1H59v0.1h0v0.1h0v0.1h0v0.1h0.1v0.1h0v0h0v0.1h0v0.1h0v0h0.1v0.1h0v0h0v0.1h0v0h0.1v0h0v0.1h0v0h0v0h0v0h0.1v0h0v0.1
	h0v0h0v0h0.1v0.1h0v0h0v0h0v0H60v0h0v0.1h0v0h0v0h0.1v0h0v0.1h0v0h0v0h0.1v0h0.1v0h0v0.1h0v0h0.1v0h0.1v0h0v0.1h0.1v0h0v0h0.1v0h0.1
	v0.1h0.1v0h0v0h0.1v0h0.1v0h0.1v0.1h0v0h0.1v0h0.1v0h0.1v0.1h0.1v0h0.1v0h0.1v0h0.1v0h0.1v0.1h0.1v0h0.1v0h0.1v0h0.1v0.1h0.2v0h0.1
	v0h0.2v0H63v0h0.2v0.1h0.2v0h0.2v0h0.2v0H64v0.1h0.3v0h0.3v0H65v0h0.3v0h0.4v0.1h0.6v0H67v0h0.8v0h0.9v0.1h1.1v0H71v0h1.4v0H74v0
	h1.9v0.1h2.3v0h7.2v0h2.2v-0.1h1.7v0h1.4v0h1.2v0h1.1v0h1v-0.1h0.8v0h0.8v0h0.7v0h0.7v-0.1h0.6v0H98v0h0.4v0h0.3v0H99v-0.1h0.2v0
	h0.2v0h0.2v0h0.2V170h0.2v0h0.2v0h0.1v0h0.1v0h0.1v-0.1h0.1v0h0.1v0h0.1v0h0.1v-0.1h0.1v0h0.1v0h0.1v0h0.1v0h0.1v-0.1h0.1v0h0.1v0
	h0.1v0h0v-0.1h0v0h0.1v0h0v0h0.1v0h0v-0.1h0.1v0h0v0h0.1v0h0v-0.1h0.1v0h0v0h0.1v0h0v-0.1h0v0h0.1v0h0v0h0v0h0v-0.1h0v0h0.1v0h0v0h0
	v-0.1h0v0h0.1v0h0.1v0h0v0h0.1v-0.1h0v0h0v0h0v-0.1h0v0h0.1v0h0v0h0v0h0v-0.1h0.1v0h0v0h0v-0.1h0v0h0v-0.1h0.1v0h0v-0.1h0v-0.1h0v0
	h0v-0.1h0.1v-0.1h0v-0.1h0v-0.1h0V167h0.1v-0.1h0v-0.1h0v-0.1h0v-0.1h0.1v-0.1h0v-0.1h0v-0.1h0v-0.1h0v-0.1h0.1v-0.1h0V166h0v-0.1h0
	v-0.1h0.1v-0.1h0v-0.1h0v-0.1h0v-0.1h0v-0.2h0.1V165h0v-0.2h0v-0.1h0v-0.2h0.1v-0.2h0v-0.2h0V164h0v-0.2h0v-0.2h0.1v-0.3h0v-0.3h0
	v-0.4h0v-0.4h0.1v-0.4h0v-0.4h0v-0.5h0v-0.5h0.1v-0.5h0v-0.7h0v-0.7h0v-1h0v-6.7h0v-1h0V149h0v-0.6h0v-0.6h-0.1v-0.5h0v-0.5h0v-0.4
	h0V146h-0.1v-0.4h0v-0.4h0v-0.3h0v-0.3h-0.1v-0.2h0v-0.2h0v-0.2h0v-0.2h0v-0.2h-0.1v-0.2h0v-0.2h0v-0.2h0V143h-0.1v-0.1h0v-0.1h0
	v-0.2h0v-0.1h0v-0.1H104v-0.1h0v-0.1h0V142h0v-0.1h-0.1v-0.1h0v-0.1h0v-0.1h0v-0.1h0v-0.1h-0.1v-0.1h0v-0.1h0v-0.1h0v-0.1h-0.1v-0.1
	h0V141h0v-0.1h0v-0.1h-0.1v0h0v-0.1h0v-0.1h0v0h0v-0.1h-0.1v0h0v-0.1h0v0h0v0h0v-0.1H103v-0.1h0v-0.1h0v0h0v-0.1h-0.1v0h0v0h0v0h0
	v-0.1h0v0h-0.1v0h0v0h0v0h0v-0.1h-0.1v0h0v0h0v0h0v0h-0.1v-0.1h0v0h0v0h0v0h-0.1v-0.1h0v0h0v0h0v0H102v-0.1h0v0h0v0h-0.1v0h0v0h-0.1
	V139h-0.1v0h-0.1v0h0v0h-0.1v-0.1h0v0h-0.1v0h-0.1v0h-0.1v0h-0.1v-0.1h-0.1v0H101v0h-0.1v0h-0.1v-0.1h-0.1v0h-0.1v0h-0.1v0h-0.1v0
	h-0.1v-0.1h-0.1v0h-0.1v0h-0.1v0h-0.2v-0.1h-0.2v0h-0.1v0h-0.2v0h-0.2V138h-0.2v0h-0.2v0h-0.3v0h-0.3v0h-0.5v-0.1h-0.6v0h-0.6v0
	h-0.7v0h-0.7v-0.1h-0.8v0h-0.9v0h-1v0h-1.2v0h-1.3v-0.1h-1.7v0h-2.1v0L76.4,137.4L76.4,137.4z M25.2,142.9c0.7,2,4,12.7,4,12.7v8.8
	h3.2v-8.8l4-12.8H33l-2.2,8.4l-2.2-8.4L25.2,142.9L25.2,142.9z M61.4,143h10v3h-3.5v18.3h-3.2v-18.3h-3.3V143L61.4,143z M81.8,143
	h2.9v7c0.9-1.1,2-1.8,3.1-1.8c1.1,0,1.9,0.7,2.3,1.9c0.2,0.6,0.4,1.6,0.4,3.2v6.4c0,1.5-0.2,2.5-0.3,3.2c-0.4,1.2-1.2,1.8-2.3,1.8
	c-1,0-2.1-0.6-3.1-1.8v1.6h-2.9V143L81.8,143z M40,148.2c-1.4,0-2.5,0.4-3.3,1.5c-0.6,0.8-0.9,2.1-0.9,3.8v5.7
	c0,1.7,0.3,2.9,0.9,3.7c0.8,1.1,2.1,1.7,3.4,1.7s2.6-0.6,3.4-1.7c0.6-0.8,0.9-2,0.9-3.7v-5.7c0-1.7-0.4-3-1-3.8
	C42.6,148.6,41.3,148.2,40,148.2L40,148.2z M96.7,148.2c1.4,0,2.6,0.6,3.4,1.7c0.6,0.8,0.9,2.1,0.9,3.8v3.2h-5.7v2.8
	c0,1.5,0.4,2.2,1.4,2.2c0.7,0,1.1-0.4,1.3-1.2c0-0.2,0-0.8,0-2h3v0.4c0,0.9-0.1,1.6-0.1,1.9c-0.1,0.6-0.3,1.2-0.7,1.8
	c-0.8,1.2-2,1.7-3.5,1.7c-1.5,0-2.7-0.5-3.5-1.6c-0.6-0.8-1-2-1-3.7v-5.6c0-1.7,0.4-3,1-3.8C94.1,148.8,95.2,148.2,96.7,148.2
	L96.7,148.2z M46.6,148.3V161c0,1.1,0.1,1.9,0.3,2.3c0.3,0.8,1,1.2,1.9,1.2c1.1,0,2-0.7,3.2-2v1.8h3v-16.1h-3v12.3
	c-0.6,0.9-1.2,1.4-1.8,1.4c-0.4,0-0.6-0.1-0.7-0.6v-1.1v-12H46.6z M71,148.5h3v11.8v1.1c0.1,0.4,0.3,0.6,0.7,0.6
	c0.6,0,1.1-0.5,1.8-1.4v-12.1h3v15.9h-3v-1.8c-1.1,1.3-2.1,2-3.2,2c-0.9,0-1.6-0.5-1.9-1.2c-0.2-0.5-0.3-1.2-0.3-2.3V148.5z
	 M86.2,150.8c-0.5,0-1,0.3-1.5,0.8v9.7c0.5,0.5,1,0.7,1.5,0.7c0.8,0,1.2-0.6,1.2-2.2v-6.9C87.4,151.3,87,150.8,86.2,150.8z
	 M96.7,150.8c-1,0-1.4,0.4-1.4,1.9v1.8H98v-1.7C98,151.3,97.7,150.8,96.7,150.8z M40,150.9c0.9,0,1.4,0.7,1.3,2.3v6.4
	c0.2,1.6-0.3,2.4-1.3,2.4c-0.9,0-1.4-0.8-1.2-2.4v-6.4C38.6,151.6,39.1,150.9,40,150.9z"/>
<path id="path22-2" inkscape:connector-curvature="0" class="st0" d="M557.3,101c-8.9,0-13.6,6-13.6,12.5c0,3,1.6,6.8,4.2,8
	c0.4,0.2,0.6,0.1,0.7-0.3c0.1-0.3,0.4-1.7,0.6-2.3c0.1-0.2,0-0.4-0.1-0.6c-0.8-1-1.5-2.9-1.5-4.7c0-4.5,3.4-8.9,9.3-8.9
	c5.1,0,8.6,3.4,8.6,8.4c0,5.6-2.8,9.4-6.5,9.4c-2,0-3.5-1.7-3-3.7c0.6-2.4,1.7-5.1,1.7-6.9c0-1.6-0.8-2.9-2.6-2.9
	c-2.1,0-3.7,2.1-3.7,5c0,1.8,0.6,3,0.6,3s-2.1,8.6-2.4,10.2c-0.6,2.7,0.1,7.1,0.2,7.5c0,0.2,0.3,0.3,0.4,0.1c0.2-0.3,2.6-4,3.3-6.6
	c0.2-1,1.3-4.9,1.3-4.9c0.7,1.3,2.6,2.4,4.7,2.4c6.2,0,10.7-5.7,10.7-12.8C570,106.1,564.5,101,557.3,101z M667.2,101.1
	c-5.3,0-8.8,3.6-8.8,8.6c0,1.5,0.5,3.1,1.2,4.2c-0.3,0-0.6,0-0.9,0c-4,0-6.5,2.2-6.5,5.4c0,3,2.4,4.1,4.6,4.9c2,0.7,3.8,1,3.8,2.5
	c0,1-1,1.7-2.9,1.7c-2.3,0-3.6-1.1-3.9-1.5c0.2-0.2,0.6-0.6,0.6-1.3c0-1-0.7-1.7-1.9-1.7c-1.1,0-1.9,0.8-2.2,2
	c-1.7,1.4-3.5,2.3-6.2,2.3c-2.6,0-3.9-1.3-3.9-4.2c0.6,0.2,2.2,0.4,3.2,0.4c4.4,0,7.3-2,7.3-6c0-2.1-1.9-4.4-5.6-4.4h0
	c-4.9,0-7.6,3.1-8.8,6.5c-0.3-0.1-0.7-0.2-1-0.2c0.3-0.8,0.5-1.6,0.5-2.6c0-1.7-1-3.7-3.8-3.7c-1.9,0-3.8,1.3-5.1,3.2
	c0.3-1.2,0.5-2.1,0.5-2.1c0.1-0.3-0.1-0.7-0.6-0.7H624c-0.4,0-0.7,0.1-0.8,0.6c-0.1,0.3-1,4.2-2,7.9c-0.6,2.3-3.7,5.2-7.7,5.2
	c-2.6,0-3.9-1.4-3.9-4.3c0.7,0.3,2.2,0.5,3.2,0.5c4.5,0,7.3-2,7.3-6c0-2.1-1.9-4.4-5.6-4.4c-5.5,0-8.9,4.3-9.4,9.1
	c-0.2,2-1.9,4.8-3.8,4.8c-0.9,0-1.4-0.6-1.4-1.5c0-0.8,0.6-2.8,1.2-5.4c0.2-0.8,0.5-2.1,0.9-3.6h3c0.4,0,0.7-0.2,0.8-0.6
	c0.1-0.6,0.4-1.7,0.5-1.9c0.1-0.4-0.1-0.7-0.5-0.7h-2.9c0,0,1.3-5.4,1.4-5.6c0.1-0.5-0.3-0.9-0.8-0.8c0,0-2.3,0.4-2.7,0.5
	c-0.4,0.1-0.8,0.3-0.9,0.9c0,0.1-1.2,4.8-1.2,4.8h-2.4c-0.4,0-0.7,0.2-0.8,0.6c-0.1,0.6-0.4,1.7-0.5,1.9c-0.1,0.4,0.1,0.7,0.5,0.7
	h2.3c0,0.1-0.8,3.2-1.5,6c-0.3,1.3-1.4,4.5-3.1,4.5c-1,0-1.4-0.5-1.4-1.6c0-1.7,1.7-6.1,1.7-8.1c0-2.6-1.4-4.2-4.3-4.2
	c-1.8,0-3.7,1.2-4.5,2.2c0,0,0.3-0.8,0.3-1.2c0.1-0.3-0.1-0.7-0.6-0.7h-2.8c-0.6,0-0.8,0.3-0.8,0.7c0,0.1-1.1,4.1-2.1,8
	c-0.7,2.6-2.3,4.8-4,4.8c-0.9,0-1.3-0.5-1.3-1.5c0-0.8,0.5-2.9,1.2-5.4c0.8-3.1,1.5-5.6,1.5-5.9c0.1-0.4-0.1-0.7-0.6-0.7h-2.9
	c-0.5,0-0.7,0.3-0.8,0.7c0,0-0.8,3-1.7,6.4c-0.6,2.5-1.3,5-1.3,6.2c0,2.1,0.9,3.7,3.5,3.7c2,0,3.6-1,4.8-2.3
	c-0.2,0.7-0.3,1.1-0.3,1.2c-0.1,0.4,0,0.8,0.5,0.8h2.9c0.5,0,0.7-0.2,0.8-0.7c0.1-0.4,2.3-9,2.3-9c0.6-2.3,2-3.8,4-3.8
	c1,0,1.8,0.7,1.7,1.9c-0.1,1.4-1.7,6.2-1.7,8.3c0,1.6,0.6,3.7,3.6,3.7c2.1,0,3.6-1,4.7-2.3c0.4,1.4,1.5,2.3,3.4,2.3
	c3.3,0,5.2-2,6.4-3.9c1,2.3,3.2,3.9,6.5,3.9c3.4,0,5.9-1.4,7.8-3.3c-0.3,1.3-0.5,2.2-0.6,2.2c-0.1,0.4,0.1,0.7,0.6,0.7h2.9
	c0.4,0,0.7-0.2,0.8-0.6c0.1-0.2,0.5-1.8,1.1-4.1c1.1-4.4,2.9-9,5.7-9c1,0,1.4,0.6,1.4,1.4c0,0.4-0.1,0.7-0.2,0.9
	c-1.3-0.3-2.4,0.4-2.4,1.8c0,0.9,0.9,1.8,2.2,1.8c1,0,1.8-0.2,2.5-0.7c0.6,0.1,1.3,0.3,1.9,0.4c-0.1,0.7-0.2,1.3-0.2,1.9
	c0,3.5,2.6,6.5,7.2,6.5c3.5,0,5.8-1.2,7.9-3c1,1.6,3.5,3,6.9,3c4.6,0,7.2-2.4,7.2-5.5c0-2.8-2.3-3.9-4.7-4.8c-2-0.7-3.6-1.1-3.6-2.5
	c0-1.1,0.9-1.6,2.4-1.6c1,0,1.8,0.2,2.2,0.3c0.4,1,1.2,2.1,2.6,2.1c1.2,0,1.7-1,1.7-1.8c0-2.4-4.1-2.7-4.1-7.9c0-3.3,1.9-6,5.7-6
	c2.7,0,4.4,1.7,4.4,4.4c0,2.2-1.3,6.2-1.3,6.2h-2.3c-0.4,0-0.7,0.2-0.8,0.6c-0.1,0.6-0.4,1.7-0.5,1.9c-0.1,0.4,0.1,0.7,0.6,0.7h2.2
	c0,0-2.3,8.6-2.3,10.2c0,2.1,1.2,3.7,3.8,3.7c3.7,0,6-2.4,7-5.8c0.1-0.3-0.1-0.5-0.3-0.5h-1.4c-0.3,0-0.4,0.2-0.5,0.4
	c-0.3,1.2-1.1,2.5-2.7,2.5c-0.9,0-1.4-0.6-1.4-1.5c0-0.8,0.5-2.8,1.2-5.4c0.3-1.2,0.9-3.6,0.9-3.6h3.2c0.4,0,0.7-0.2,0.8-0.6
	c0.1-0.6,0.4-1.7,0.5-1.9c0.1-0.4-0.1-0.7-0.5-0.7H674c0.2-0.9,1.2-3.9,1.2-5.9C675.2,104.4,671.9,101.1,667.2,101.1L667.2,101.1z
	 M575.2,107c-1.5,0-2.7,1.2-2.8,2.8c-0.1,1.5,1,2.7,2.5,2.7c1.5,0,2.7-1.2,2.8-2.7C577.8,108.2,576.6,107,575.2,107L575.2,107z
	 M613.8,117.2c1.4,0,1.9,0.8,1.9,1.9c0,1.7-1.3,2.8-3.4,2.8c-0.8,0-1.8-0.2-2.4-0.4C610.1,119.9,611.1,117.2,613.8,117.2z
	 M644.3,117.2c1.3,0,1.9,0.8,1.9,1.9c0,1.7-1.4,2.8-3.5,2.8c-0.8,0-1.8-0.2-2.4-0.4C640.6,119.9,641.8,117.2,644.3,117.2z"/>
<path id="path3884" inkscape:connector-curvature="0" class="st0" d="M359,120c-10.9,0-19.8,8.9-19.8,19.8
	c0,14.7,15.8,30.9,19.8,30.9s19.8-16.2,19.8-30.9C378.9,128.9,370,120,359,120L359,120z M359,127.9c6.6,0,12,5.4,12,12
	c0,6.6-5.4,12-12,12s-12-5.4-12-12c0-2.6,0.9-5.1,2.3-7c0.2,2.5,2.3,4.6,4.8,4.6c2.7,0,4.9-2.2,4.9-4.9c0-1.9-1.1-3.6-2.7-4.4
	C357.2,128,358.1,127.9,359,127.9L359,127.9z"/>
<path id="path14" inkscape:connector-curvature="0" class="st0" d="M647,149.3c-1.4,0-2.5,1.1-2.5,2.4v28.7c0,1.3,1.1,2.4,2.5,2.4
	h28.3c1.4,0,2.5-1.1,2.5-2.4v-28.7c0-1.3-1.1-2.4-2.5-2.4H647z M652.2,154.9c1.7,0,2.8,1.1,2.8,2.6c0,1.5-1.1,2.6-2.8,2.6h0
	c-1.7,0-2.8-1.2-2.8-2.6C649.3,156,650.4,154.9,652.2,154.9z M569.9,154.9c-1.7,0-2.8,1.1-2.8,2.6c0,1.5,1.1,2.6,2.8,2.6h0
	c1.8,0,2.8-1.2,2.8-2.6C572.6,156,571.6,154.9,569.9,154.9L569.9,154.9z M551.4,155.4v21.9h13.9v-4.6h-8.9v-17.4H551.4z
	 M592.1,155.4v21.9h5v-4.9l1.3-1.6l3.9,6.5h6.2l-6.6-9.4l5.8-6.4h-6c0,0-4.1,5.7-4.5,6.4v-12.6L592.1,155.4L592.1,155.4z
	 M634.5,155.4v7.6h-0.1c-0.7-1.1-2.2-1.8-4.3-1.8c-3.9,0-7.3,3.1-7.2,8.4c0,4.9,3.1,8.1,6.9,8.1c2.1,0,4.1-0.9,5.1-2.6h0.1l0.2,2.3
	h4.5c-0.1-1.1-0.1-2.9-0.1-4.7v-17.2L634.5,155.4L634.5,155.4z M614.9,161.2c-5.6,0-8.2,4.4-8.2,8.4c0,5,3.1,8.1,8.6,8.1
	c2.2,0,4.2-0.3,5.9-1l-0.7-3.3c-1.4,0.4-2.7,0.7-4.5,0.7c-2.3,0-4.4-1-4.6-3l10.4,0c0.1-0.4,0.2-1.1,0.2-2
	C622.1,165.1,620.1,161.2,614.9,161.2L614.9,161.2z M667,161.8c3.3,0,5.8,2.2,5.8,6.8v8.7h-5v-8.1c0-2-0.7-3.4-2.5-3.4
	c-1.4,0-2.2,0.9-2.6,1.8c-0.1,0.3-0.2,0.8-0.2,1.2v8.4h-5c0,0,0.1-13.7,0-15.1h5v2.1C663.1,163.3,664.3,161.8,667,161.8L667,161.8z
	 M662.4,164.3C662.4,164.3,662.4,164.4,662.4,164.3L662.4,164.3L662.4,164.3z M584.2,161.8c-2.7,0-3.9,1.5-4.5,2.5v0.1h0
	c0,0,0,0,0-0.1v-2.1h-5c0.1,1.4,0,15.1,0,15.1h5v-8.4c0-0.5,0-0.9,0.2-1.2c0.4-0.9,1.2-1.8,2.6-1.8c1.8,0,2.6,1.4,2.6,3.4v8.1h5
	v-8.7C590,164,587.5,161.8,584.2,161.8z M649.6,162.2h5v15.1h-5V162.2z M567.3,162.2v15.1h5v-15.1H567.3z M614.6,164.4
	c2.3,0,2.8,2,2.8,3.2h-5.9C611.6,166.3,612.5,164.4,614.6,164.4L614.6,164.4z M631.5,165c1.6,0,2.6,1.1,2.9,2.4
	c0.1,0.3,0.1,0.6,0.1,0.9v2.1c0,0.4,0,0.8-0.1,1.1c-0.3,1.4-1.5,2.3-2.9,2.3c-2.1,0-3.4-1.7-3.4-4.3C628,167,629.2,165,631.5,165
	L631.5,165z"/>
<path id="path4026" inkscape:connector-curvature="0" class="st0" d="M443.9,147.5c-1.2,0.3-2.3,0.4-3.4,0.4
	c-5.8,0-10.3-4.1-10.3-11.1c0-3.5,1.3-5.3,3.2-5.3c1.8,0,3,1.6,3,4.9c0,1.9-0.5,3.9-0.9,5.1c0,0,1.8,3.1,6.7,2.2
	c1-2.3,1.6-5.3,1.6-7.9c0-7.1-3.6-11.2-10.2-11.2c-6.8,0-10.8,5.2-10.8,12.1c0,6.8,3.2,12.7,8.4,15.3c-2.2,4.4-5,8.3-8,11.3
	c-5.3-6.4-10.1-15-12.1-31.8h-7.9c3.6,27.9,14.4,36.8,17.3,38.5c1.6,1,3,0.9,4.5,0.1c2.3-1.3,9.3-8.3,13.2-16.5
	c1.6,0,3.6-0.2,5.5-0.6L443.9,147.5L443.9,147.5z"/>
<path id="path4115" inkscape:connector-curvature="0" class="st0" d="M149.2,121.9c-12.8,0-19.6,8.6-19.6,17.9c0,4.3,2.3,9.7,6,11.5
	c0.6,0.3,0.9,0.1,1-0.4c0.1-0.4,0.6-2.4,0.8-3.4c0.1-0.3,0-0.6-0.2-0.9c-1.2-1.5-2.2-4.2-2.2-6.8c0-6.5,4.9-12.8,13.4-12.8
	c7.3,0,12.4,5,12.4,12c0,8-4,13.6-9.3,13.6c-2.9,0-5.1-2.4-4.4-5.4c0.8-3.5,2.5-7.3,2.5-9.9c0-2.3-1.2-4.2-3.7-4.2
	c-3,0-5.4,3.1-5.4,7.2c0,2.6,0.9,4.4,0.9,4.4s-2.9,12.4-3.5,14.7c-0.9,3.9,0.1,10.3,0.2,10.8c0,0.3,0.4,0.4,0.6,0.1
	c0.3-0.4,3.8-5.7,4.8-9.5c0.4-1.4,1.8-7,1.8-7c1,1.8,3.8,3.4,6.8,3.4c8.9,0,15.4-8.2,15.4-18.4C167.5,129.2,159.5,121.9,149.2,121.9
	"/>
<path id="path4157" inkscape:connector-curvature="0" class="st1" d="M267.6,119.6c-2.1,0-3.8,1.6-3.8,3.7v43.8c0,2,1.7,3.7,3.8,3.7
	h43.3c2.1,0,3.8-1.6,3.8-3.7v-43.8c0-2-1.7-3.7-3.8-3.7H267.6z M275.4,128.2c2.6,0,4.2,1.7,4.3,4c0,2.2-1.7,4-4.3,4h0
	c-2.6,0-4.2-1.8-4.2-4C271.1,129.9,272.8,128.2,275.4,128.2L275.4,128.2z M298.1,138.8c5,0,8.8,3.3,8.8,10.4v13.2h-7.7v-12.3
	c0-3.1-1.1-5.2-3.9-5.2c-2.1,0-3.4,1.4-3.9,2.8c-0.2,0.5-0.2,1.2-0.2,1.9v12.9h-7.7c0,0,0.1-20.9,0-23.1h7.7v3.3
	C292.2,141,294,138.8,298.1,138.8L298.1,138.8z M291.2,142.6C291.1,142.6,291.1,142.7,291.2,142.6L291.2,142.6L291.2,142.6z
	 M271.6,139.3h7.7v23.1h-7.7V139.3L271.6,139.3z"/>
<path id="path4173" inkscape:connector-curvature="0" class="st0" d="M215.7,123.6c-13,0-23.6,10.6-23.6,23.6
	c0,9.7,5.8,18,14.2,21.6c-0.1-1.8-0.2-4,0.2-5.6c0.5-2,2.9-12.4,2.9-12.4s-0.8-1.5-0.8-3.7c0-3.5,2-6.1,4.5-6.1
	c2.1,0,3.2,1.6,3.2,3.5c0,2.1-1.4,5.4-2.1,8.3c-0.6,2.5,1.2,4.5,3.7,4.5c4.4,0,7.9-4.7,7.9-11.5c0-6-4.3-10.2-10.4-10.2
	c-7.1,0-11.3,5.3-11.3,10.8c0,2.1,0.8,4.5,1.9,5.7c0.2,0.2,0.2,0.5,0.2,0.7c-0.2,0.8-0.6,2.5-0.7,2.8c-0.1,0.5-0.4,0.6-0.8,0.3
	c-3.1-1.5-5.1-6-5.1-9.7c0-7.9,5.7-15.1,16.5-15.1c8.7,0,15.4,6.2,15.4,14.4c0,8.6-5.4,15.6-13,15.6c-2.5,0-4.9-1.3-5.7-2.9
	c0,0-1.2,4.8-1.5,5.9c-0.4,1.7-1.5,3.7-2.4,5.3c2.2,0.7,4.5,1,6.8,1c13,0,23.6-10.6,23.6-23.6C239.2,134.1,228.7,123.6,215.7,123.6
	L215.7,123.6z"/>
<path id="Blue_1_" inkscape:connector-curvature="0" class="st1" d="M32.6,23.9c-1.5,0-2.8,1.3-2.8,2.8v45.2c0,1.5,1.3,2.8,2.8,2.8
	h24.3V55h-6.6v-7.7h6.6v-5.7c0-6.6,4-10.1,9.9-10.1c2.8,0,5.2,0.2,5.9,0.3v6.9h-4.1c-3.2,0-3.8,1.5-3.8,3.7v4.9h7.6l-1,7.7h-6.6
	v19.7h12.9c1.5,0,2.8-1.3,2.8-2.8V26.7c0-1.5-1.3-2.8-2.8-2.8L32.6,23.9L32.6,23.9z"/>
<path id="path22" inkscape:connector-curvature="0" class="st1" d="M229.6,38.3c-1.9,0.8-3.9,1.4-6,1.6c2.2-1.3,3.8-3.3,4.6-5.8
	c-2,1.2-4.2,2.1-6.6,2.5c-1.9-2-4.6-3.3-7.6-3.3c-5.8,0-10.4,4.7-10.4,10.4c0,0.8,0.1,1.6,0.3,2.4c-8.7-0.4-16.3-4.6-21.5-10.9
	c-0.9,1.5-1.4,3.3-1.4,5.2c0,3.6,1.8,6.8,4.6,8.7c-1.7-0.1-3.3-0.5-4.7-1.3c0,0,0,0.1,0,0.1c0,5,3.6,9.3,8.4,10.2
	c-0.9,0.2-1.8,0.4-2.7,0.4c-0.7,0-1.3-0.1-2-0.2c1.3,4.1,5.2,7.2,9.7,7.2c-3.6,2.8-8.1,4.5-12.9,4.5c-0.8,0-1.7,0-2.5-0.1
	c4.6,3,10.1,4.7,16,4.7c19.2,0,29.6-15.9,29.6-29.6c0-0.5,0-0.9,0-1.3C226.4,42.2,228.2,40.4,229.6,38.3"/>
<path id="path5" inkscape:connector-curvature="0" class="st0" d="M377.9,74.7c-0.1,0-0.3,0-0.4,0c-0.1,0-0.2,0-0.3,0
	c-3,0-5-1.4-6.8-2.7c-1.3-0.9-2.5-1.8-3.9-2c-0.7-0.1-1.4-0.2-2.1-0.2c-1.2,0-2.2,0.2-2.8,0.3c-0.4,0.1-0.8,0.2-1.1,0.2
	c-0.3,0-0.7-0.1-0.8-0.6c-0.1-0.4-0.2-0.8-0.3-1.2c-0.2-0.9-0.4-1.5-0.7-1.6c-3.8-0.6-6-1.4-6.5-2.5c0-0.1-0.1-0.2-0.1-0.3
	c0-0.3,0.2-0.6,0.5-0.6c3-0.5,5.7-2.1,8-4.7c1.8-2,2.6-4,2.7-4.2c0,0,0,0,0,0c0.4-0.9,0.5-1.7,0.3-2.3c-0.5-1.2-2.1-1.7-3.2-2
	c-0.3-0.1-0.5-0.2-0.7-0.2c-0.9-0.4-2.5-1.2-2.3-2.3c0.2-0.8,1.2-1.4,2.1-1.4c0.2,0,0.4,0,0.6,0.1c1,0.5,1.8,0.7,2.6,0.7
	c0.9,0,1.4-0.4,1.5-0.5c0-0.5-0.1-1-0.1-1.5c0,0,0,0,0,0c-0.2-3.5-0.5-7.8,0.6-10.2c3.3-7.4,10.3-8,12.4-8c0.1,0,0.9,0,0.9,0
	c0,0,0.1,0,0.1,0c2.1,0,9.1,0.6,12.4,8c1.1,2.5,0.8,6.8,0.6,10.2l0,0.2c0,0.5-0.1,0.9-0.1,1.3c0.1,0.1,0.5,0.4,1.3,0.5
	c0.7,0,1.5-0.3,2.4-0.7c0.3-0.1,0.6-0.2,0.8-0.2c0.3,0,0.6,0.1,0.9,0.2l0,0c0.8,0.3,1.3,0.8,1.3,1.4c0,0.5-0.4,1.3-2.3,2.1
	c-0.2,0.1-0.5,0.2-0.7,0.2c-1.1,0.3-2.7,0.9-3.2,2c-0.3,0.6-0.2,1.4,0.3,2.3c0,0,0,0,0,0c0.1,0.3,3.4,7.8,10.7,9
	c0.3,0.1,0.5,0.3,0.5,0.6c0,0.1,0,0.2-0.1,0.3c-0.4,1-2.7,1.9-6.5,2.5c-0.4,0.1-0.5,0.6-0.7,1.6c-0.1,0.4-0.2,0.8-0.3,1.2
	c-0.1,0.4-0.4,0.6-0.8,0.6h-0.1c-0.3,0-0.6,0-1.1-0.1c-0.8-0.2-1.7-0.3-2.8-0.3c-0.7,0-1.4,0.1-2.1,0.2c-1.4,0.2-2.6,1.1-3.9,2
	C383,73.2,380.9,74.7,377.9,74.7"/>
<path id="path3805" inkscape:connector-curvature="0" class="st0" d="M527.2,25c-0.9,0-1.6,0.7-1.6,1.6v46.5c0,0.9,0.7,1.6,1.6,1.6
	h47.6c0.9,0,1.6-0.7,1.6-1.6V26.6c0-0.9-0.7-1.6-1.6-1.6H527.2z M544.9,39.2c2.8,0,5.3,1.1,7.2,2.8c-2.2,2.1-2.2,2.2-3,3.1
	c-1.1-0.9-2.3-1.6-4.1-1.6c-3.5,0-6.2,2.8-6.2,6.3c0,3.5,2.7,6.3,6.2,6.3c3.4,0,4.8-1.5,5.8-4.2c-1.7,0-5.8,0-5.8,0v-4.2h10.2
	c0.7,5.1-1.4,12.8-10.2,12.8c-5.9,0-10.7-4.8-10.7-10.7C534.2,43.9,539,39.2,544.9,39.2z M561.4,44.2h2.6v3.7h3.7v2.6h-3.7v3.8h-2.6
	v-3.8h-3.8v-2.6h3.8V44.2z"/>
<path id="path4180" inkscape:connector-curvature="0" class="st0" d="M135.9,23.9c-6.9,0-11.6,4.2-11.6,11.9v6.7h-7.8v9h7.8v23.2
	h9.3V51.5h7.8l1.2-9h-8.9v-5.8c0-2.6,0.7-4.4,4.5-4.4h4.8v-8.1C142,24.1,139.2,23.9,135.9,23.9L135.9,23.9z"/>
<path id="rect4197" inkscape:connector-curvature="0" class="st0" d="M449.9,23.9c-6.1,0-11,4.9-11,11v28.9c0,6.1,4.9,11,11,11h28.9
	c6.1,0,11-4.9,11-11V34.8c0-6.1-4.9-11-11-11H449.9z M464.5,35.4C464.5,35.4,464.6,35.4,464.5,35.4c1.3,0,5.3,0.3,7.3,4.6
	c0.6,1.4,0.5,3.9,0.4,6l0,0.1c0,0.3,0,0.5,0,0.8c0.1,0.1,0.3,0.2,0.8,0.3c0.4,0,0.9-0.2,1.4-0.4c0.2-0.1,0.3-0.1,0.5-0.1
	c0.2,0,0.4,0,0.5,0.1h0c0.4,0.2,0.7,0.5,0.7,0.8c0,0.3-0.2,0.8-1.3,1.2c-0.1,0-0.3,0.1-0.4,0.1c-0.6,0.2-1.6,0.5-1.8,1.2
	c-0.2,0.4-0.1,0.8,0.1,1.3c0,0,0,0,0,0c0.1,0.2,2,4.5,6.2,5.2c0.2,0,0.3,0.2,0.3,0.4c0,0.1,0,0.1,0,0.2c-0.3,0.6-1.6,1.1-3.8,1.4
	c-0.2,0-0.3,0.4-0.4,0.9c0,0.2-0.1,0.5-0.2,0.7c-0.1,0.2-0.2,0.3-0.4,0.3h0c-0.1,0-0.4,0-0.6-0.1c-0.5-0.1-1-0.2-1.7-0.2
	c-0.4,0-0.8,0-1.2,0.1c-0.8,0.1-1.5,0.6-2.3,1.2c-1,0.7-2.2,1.6-4,1.6c-0.1,0-0.2,0-0.2,0c0,0-0.1,0-0.1,0c-1.8,0-2.9-0.8-4-1.6
	c-0.7-0.5-1.4-1-2.3-1.2c-0.4-0.1-0.8-0.1-1.2-0.1c-0.7,0-1.3,0.1-1.7,0.2c-0.2,0-0.5,0.1-0.6,0.1c-0.2,0-0.4,0-0.5-0.3
	c-0.1-0.2-0.1-0.5-0.2-0.7c-0.1-0.6-0.2-0.9-0.4-0.9c-2.2-0.3-3.5-0.8-3.8-1.4c0-0.1,0-0.1,0-0.2c0-0.2,0.1-0.3,0.3-0.4
	c1.8-0.3,3.3-1.2,4.6-2.7c1-1.2,1.5-2.3,1.6-2.5c0,0,0,0,0,0c0.3-0.5,0.3-1,0.1-1.3c-0.3-0.7-1.2-1-1.8-1.2c-0.2,0-0.3-0.1-0.4-0.1
	c-0.6-0.2-1.5-0.7-1.3-1.3c0.1-0.5,0.7-0.8,1.2-0.8c0.1,0,0.3,0,0.4,0.1c0.6,0.3,1.1,0.4,1.5,0.4c0.5,0,0.8-0.2,0.9-0.3
	c0-0.3,0-0.6-0.1-0.9c0,0,0,0,0,0c-0.1-2-0.3-4.5,0.4-6c1.9-4.3,6-4.6,7.2-4.6C464,35.4,464.5,35.4,464.5,35.4L464.5,35.4z"/>
<text transform="matrix(1 0 0 1 193.5223 212.2638)" class="st2 st3">THESE ICONS ARE ALL PROPERTY AND REGISTERED TRADEMARKS OF THEIR RESPECTIVE OWNERS.</text>
<text transform="matrix(1 0 0 1 254.7963 220.1654)" class="st2 st3">MAKE SURE TO CHECK EACH BRAND&apos;S GUIDELINES FOR USING </text>
<text transform="matrix(1 0 0 1 231.9898 228.0669)" class="st2 st3">THEIR TRADEMARK BEOFRE IMPLEMENTING THEM INTO YOUR DESIGN WORK</text>
<path id="path2997" inkscape:connector-curvature="0" class="st0" d="M470.5,123.7l-2,8v36h9v5h5l5-5h8l16-16v-28L470.5,123.7
	L470.5,123.7z M474.5,127.7h33v22l-7,7h-11l-6,6v-6h-9L474.5,127.7L474.5,127.7z M485.5,135.7v12h4v-12H485.5z M496.5,135.7v12h4
	v-12H496.5z"/>
<path id="path14-2" inkscape:connector-curvature="0" class="st0" d="M670.6,46.1v-7.2h-5.1v7.2H658v5.1h7.4v7.4h5.1v-7.4h7.2v-5.1
	H670.6z M633.1,45.7v8.2c0,0,8,0,11.2,0c-1.8,5.3-4.5,8.2-11.2,8.2c-6.8,0-12.2-5.5-12.2-12.4c0-6.8,5.3-12.4,12.2-12.4
	c3.6,0,5.9,1.3,8.1,3c1.7-1.7,1.6-2,5.9-6.1c-3.7-3.4-8.6-5.4-14-5.4c-11.5,0-20.8,9.3-20.8,20.8c0,11.5,9.3,20.8,20.8,20.8
	c17.2,0,21.4-15,20-24.9C649,45.7,633.1,45.7,633.1,45.7"/>
<path id="rect3687" inkscape:connector-curvature="0" class="st1" d="M280,23.5c-8.3,0-15,6.7-15,15v21.6c0,8.3,6.7,15,15,15h21.8
	c8.3,0,15-6.7,15-15V38.4c0-8.3-6.7-15-15-15H280z M280,27.9h21.8c5.9,0,10.5,4.7,10.5,10.5v21.6c0,5.9-4.7,10.5-10.5,10.5H280
	c-5.9,0-10.5-4.7-10.5-10.5V38.4C269.5,32.6,274.1,27.9,280,27.9z M304.8,32.3c-1.7,0-3.1,1.4-3.1,3.1c0,1.7,1.4,3.1,3.1,3.1
	s3.1-1.4,3.1-3.1C307.9,33.7,306.5,32.3,304.8,32.3z M290.9,36c-7.3,0-13.3,6-13.3,13.3c0,7.3,6,13.3,13.3,13.3s13.3-6,13.3-13.3
	S298.2,36,290.9,36z M290.9,40.4c4.9,0,8.8,3.9,8.8,8.8c0,4.9-3.9,8.8-8.8,8.8c-4.9,0-8.8-3.9-8.8-8.8C282,44.3,286,40.4,290.9,40.4
	z"/>
</svg>
